PathFileType	4	(X/Y/Z)	Patient4_TMGait_0pt2_03_left_24.trc.trc
DataRate	CameraRate	NumFrames	NumMarkers	Units	OrigDataRate	OrigDataStartFrame	OrigNumFrames
48.780487804878	48.780487804878	5	33	mm	48.780487804878	53	       141
Frame#	Time	Sacral			L.Shoulder			Chest			R.Shoulder			Neck			R.ASIS			L.ASIS			R.Thigh.Superior			R.Thigh.Lateral			R.Thigh.Inferior			R.Patella			L.Thigh.Superior			L.Thigh.Lateral			L.Thigh.Inferior			L.Patella			L.Shank.Superior			L.Shank.Lateral			L.Shank.Inferior			R.Shank.Superior			R.Shank.Lateral			R.Shank.Inferior			R.Heel			R.Midfoot.Superior			R.Midfoot.Lateral			R.Toe			L.Heel			L.Midfoot.Lateral			L.Midfoot.Superior			L.Toe			L.Elbow			L.Wrist			R.Elbow			R.Wrist			
		X1	Y1	Z1	X2	Y2	Z2	X3	Y3	Z3	X4	Y4	Z4	X5	Y5	Z5	X6	Y6	Z6	X7	Y7	Z7	X8	Y8	Z8	X9	Y9	Z9	X10	Y10	Z10	X11	Y11	Z11	X12	Y12	Z12	X13	Y13	Z13	X14	Y14	Z14	X15	Y15	Z15	X16	Y16	Z16	X17	Y17	Z17	X18	Y18	Z18	X19	Y19	Z19	X20	Y20	Z20	X21	Y21	Z21	X22	Y22	Z22	X23	Y23	Z23	X24	Y24	Z24	X25	Y25	Z25	X26	Y26	Z26	X27	Y27	Z27	X28	Y28	Z28	X29	Y29	Z29	X30	Y30	Z30	X31	Y31	Z31	X32	Y32	Z32	X33	Y33	Z33	

53	51.216000000000	815.776510127267	1001.543379084410	421.472654570491	1000.041505707663	1423.442558958464	224.691258514406	1103.333548520968	1355.260454328364	385.076571685415	1027.624314641549	1435.891331718336	557.824802627126	989.083311809951	1489.978270951954	380.657256723199	1047.522966981661	941.645797635176	534.629862453590	1027.964663600378	952.934713438523	261.897778419011	1121.480686212389	761.874840316941	506.939234859158	1077.428039157819	645.715077818985	586.053211820972	1160.560679643947	598.282175763333	503.711833173179	1172.902100770579	484.856482177131	529.359089260203	1096.010061355884	754.324970927467	298.525855160378	1016.607652028334	616.288498864565	240.093884934000	1117.243866326381	562.378455970487	309.188354472361	1124.923349529388	490.718071300517	318.791161711909	1095.510616413747	413.963738532450	312.563063376217	1003.445538830953	300.596944176264	262.660297637031	1050.494532934745	190.887520558122	338.129326663994	1089.628339247368	418.324195979117	547.780693571731	969.404951575552	396.323367787656	619.804311445880	940.871285672227	285.813529858631	580.284906185052	731.876113020689	242.587891819492	569.353010225783	896.710539818804	170.991244863514	608.839007649647	788.482150644601	182.166026965376	644.169814500981	952.811412298725	56.272182577284	638.737115710018	917.846923171884	38.204046917756	381.881797955046	990.113993316219	34.952518270139	299.568341075714	1072.822420275212	97.581673370366	325.001564302437	1200.750897066952	49.735936670737	293.923334668282	1022.923994828739	1072.366575008689	102.044678382720	1135.122882063358	837.672670319310	123.196979988167	1090.509527763659	1089.109897041441	674.640096089809	1295.465109348269	935.488650933092	656.371566282408	
54	51.236500000000	814.693125025471	997.859815811730	418.379108758734	999.129875432415	1421.357797417166	223.338991726727	1101.347519480321	1353.061521636197	384.325271712452	1023.889909738702	1432.238930657999	557.096752516807	987.138037212892	1487.474638703959	379.553877549835	1046.618344997434	939.539297741555	532.207846625628	1028.062714398419	950.984077774011	259.366458458082	1125.692017702357	763.694424498140	503.564969190567	1086.237119872335	646.593824026464	583.525047300870	1170.722502405327	601.636159131128	500.947591528559	1185.930392366078	487.374855619516	526.958693858269	1098.499674702632	753.221649836022	296.984564990131	1020.837781904811	614.045526167376	239.037381862766	1121.660218464989	561.239236302737	309.219379696156	1130.062609402159	489.119519650843	319.152736940778	1099.014058380580	411.776320385685	312.999292761481	1005.213528230986	299.977455313543	262.479033774942	1049.206202823806	189.590121719621	338.569746525073	1101.021847725605	420.410198883150	545.688835391072	978.689642177318	401.791332517797	616.425047337470	947.980710618181	291.113884697601	578.186462572230	737.349600262919	253.036996823660	565.437315517309	900.622643388820	177.390881043939	607.458396288660	791.765159854185	191.868790806566	641.607407560375	953.651312722265	60.251251989248	639.704023314764	913.804172135358	38.259351957732	381.807403875649	986.127342005564	35.004128954504	299.566009988148	1069.081142439804	97.274366627320	325.398911410803	1196.848372257986	49.238068224514	294.077496789290	1030.887374675581	1071.340565753214	99.684063652576	1157.273050064798	844.153567412739	122.278198071840	1072.072754454742	1081.762782063674	672.400625164948	1258.622870138539	905.918081964734	657.941903465081	
55	51.257000000000	813.786476540021	994.540176366022	415.505552173940	998.463635860628	1419.573299499576	222.280226700035	1099.633055825106	1351.076337503362	383.800574448364	1020.488978580598	1428.783842100082	556.618145186853	985.465774429156	1485.222634970502	378.754065325565	1045.805511056991	937.636731550125	530.061729072550	1028.346963372521	949.263606502499	257.061577073315	1129.111616772221	765.285738769434	501.075046998990	1093.348227723614	647.575155706634	581.896752181752	1179.191274008313	604.840479387295	499.393442175466	1197.102881188433	490.285799680422	525.780543429496	1100.612221644918	752.117195634478	295.670790568777	1024.333281166143	612.004158753249	238.127786201689	1125.173517618974	560.079836381329	309.338153219692	1134.126273130202	487.592603615633	319.578373056580	1101.639122986873	409.756393414973	313.436215316737	1006.300745312201	299.365541241351	262.348238898525	1047.559897499372	188.403001281209	338.972245695476	1111.540196743651	422.400357782037	544.630805737182	987.657787892951	405.173797077388	613.891450371772	956.733108183682	294.082693451314	576.767046254217	745.656818862190	257.460356147745	561.762019447425	908.129496405438	181.004020989437	606.682079334545	798.691336495930	196.780038926068	639.459020888675	959.962287169750	63.070361956197	641.461372200220	909.743440558419	38.302194117303	381.730185244774	982.122286938674	35.041810465772	299.554262813262	1065.289023732634	97.013776330544	325.740156431450	1192.917938440758	48.815994067146	294.203692643542	1038.441446194022	1070.929376851249	97.404895925662	1179.361060952656	852.548601366623	121.652038500187	1053.331892882730	1075.425427408999	670.299385475962	1219.056198230610	879.374392315799	659.453660137856	
56	51.277500000000	813.036814522795	991.818302334464	412.798726961962	998.213016448452	1418.244999885790	221.488741763948	1098.259456763310	1349.460464086215	383.539973126337	1017.432248855204	1425.780113090425	556.348780791128	984.160664109644	1483.403234007581	378.204004229206	1045.001205133702	936.121853413286	528.264631392421	1028.847986615195	947.925936220393	255.049752891738	1131.656357077563	766.739076613012	499.523951913937	1098.583877829188	648.680767341946	581.152478154872	1185.760789324176	607.846946095345	499.009940827488	1206.168674184457	493.584432678728	525.803475799163	1102.189627383979	751.077508096103	294.620575331772	1026.842898306775	610.306201456532	237.326967599038	1127.479445501531	558.959537752840	309.490904760805	1136.755982710139	486.214308175775	319.999484804148	1103.084954541648	408.013145443029	313.810631378581	1006.483720099282	298.796048682186	262.227906575927	1045.444513934689	187.388933173834	339.305437544699	1121.102005593085	424.273711198423	544.596240907737	996.445238268454	406.173418299334	612.338771417399	967.458429166776	294.473876160135	576.111660909373	757.353281651721	255.268101329955	558.666344316729	919.866588717517	181.503324573058	606.561459643388	809.973895379115	196.315775768765	637.907415718506	972.591226387872	64.480699258786	643.806578049041	905.657675266416	38.329171787774	381.651206675693	978.090233226589	35.062936157970	299.531498630400	1061.425904625496	96.809618864714	326.007121771886	1188.947102072635	48.492448727629	294.298705816375	1045.771164095013	1071.286157110777	95.142127460021	1201.190284595616	862.959964266857	121.296431061110	1034.351943712561	1070.454147285177	668.364476574104	1177.474545713306	856.692367669654	660.910413987317	
57	51.298000000000	812.430170717347	989.883738718023	410.225668165787	998.511776816452	1417.495747789428	220.943486281495	1097.266358200152	1348.352453315745	383.583757415101	1014.698418875822	1423.459232220792	556.248564529229	983.284884133094	1482.166619826682	377.850414587916	1044.134679977203	935.144100260031	526.883016107436	1029.580130117253	947.097666434125	253.400077747687	1133.273588513218	768.139822715741	498.872262466788	1101.899329203859	649.928855790757	581.199736235922	1190.306960002713	610.610587650795	499.625189941440	1212.987614859823	497.243300863839	526.866979889440	1103.125847087952	750.163811701455	293.871827034052	1028.201126688745	609.066782044880	236.615563461637	1128.377026402636	557.934936845135	309.650207454495	1137.714852201609	485.053421028238	320.377789294933	1103.148782557705	406.636291604378	314.087892694640	1005.614225534411	298.306837760097	262.094203912642	1042.785206770593	186.598257748869	339.553755230674	1129.669589998907	426.038263968379	545.468952830035	1005.229866350922	404.709662273305	611.813810450187	980.365094600315	292.318439092012	576.228691473767	772.846809116612	246.474739285774	556.447942100747	936.195974057223	178.928379933788	607.066297756862	826.100557517666	190.425760074903	637.074226615829	991.939626192977	64.525384903779	646.442957030570	901.541435115979	38.338323408269	381.572010132440	974.024648863928	35.067584447288	299.497885960373	1057.477812331176	96.667710526436	326.190710160523	1184.926213647493	48.281743507646	294.363797545971	1053.059036026571	1072.536060726198	92.853799271493	1222.561287446656	875.401314210550	121.200043606286	1015.196263589676	1067.179761691872	666.633373921312	1134.724119623171	838.530507383474	662.324858985842	
